{"title":"Naruto Shippuuden 264 mkv 60 mb Bzingaz.mkv","uid":7295908,"size":61624933,"categoryP":"video","categoryS":"tv_shows","magnet":"?xt=urn:btih:627c5a973ff86cc3de9aca48333ae9f19b6b9bb9&amp;dn=Naruto+Shippuuden+264+mkv+60+mb+Bzingaz.mkv&amp;tr=udp%3A%2F%2Ftracker.openbittorrent.com%3A80&amp;tr=udp%3A%2F%2Fopen.demonii.com%3A1337&amp;tr=udp%3A%2F%2Ftracker.coppersurfer.tk%3A6969&amp;tr=udp%3A%2F%2Fexodus.desync.com%3A6969","seeders":0,"leechers":0,"uploader":"bzingaz","files":1,"time":1337883446,"description":"Naruto_Shippuuden_264 Eng Subbed BZINGAZ in mkv format 60 mb size.            \n                                                               \n                              Download**Enjoy**Seed\n\n\nNaruto Shippuuden 264 mkv 60 mb Bzingaz.mkv\n\nFormat                           : Matroska\nFormat version                   : Version 2\nFile size                        : 58.8 MiB\nDuration                         : 23mn 9s\nOverall bit rate                 : 355 Kbps\n\nVideo\nID                               : 1\nFormat                           : AVC\nFormat/Info                      : Advanced Video Codec\nFormat profile                   : &lt;a class=&quot;__cf_email__&quot; href=&quot;/cdn-cgi/l/email-protection&quot; data-cfemail=&quot;ace4c5cbc4ece09f829c&quot;&gt;[email&amp;#160;protected]&lt;/a&gt;&lt;script cf-hash='f9e31' type=&quot;text/javascript&quot;&gt;\n/* &lt;![CDATA[ */!function(){try{var t=&quot;currentScript&quot;in document?document.currentScript:function(){for(var t=document.getElementsByTagName(&quot;script&quot;),e=t.length;e--;)if(t[e].getAttribute(&quot;cf-hash&quot;))return t[e]}();if(t&amp;&amp;t.previousSibling){var e,r,n,i,c=t.previousSibling,a=c.getAttribute(&quot;data-cfemail&quot;);if(a){for(e=&quot;&quot;,r=parseInt(a.substr(0,2),16),n=2;a.length-n;n+=2)i=parseInt(a.substr(n,2),16)^r,e+=String.fromCharCode(i);e=document.createTextNode(e),c.parentNode.replaceChild(e,c)}}}catch(u){}}();/* ]]&gt; */&lt;/script&gt;\nFormat settings, CABAC           : Yes\nFormat settings, ReFrames        : 4 frames\nFormat settings, GOP             : M=4, N=5\nCodec ID                         : V_MPEG4/ISO/AVC\nDuration                         : 23mn 9s\nBit rate                         : 311 Kbps\nWidth                            : 848 pixels\nHeight                           : 480 pixels\nDisplay aspect ratio             : 16:9\nFrame rate mode                  : Variable\nFrame rate                       : 23.976 fps\nColor space                      : YUV\nChroma subsampling               : 4:2:0\nBit depth                        : 8 bits\nScan type                        : Progressive\nBits/(Pixel*Frame)               : 0.032\nStream size                      : 49.6 MiB (84%)\nWriting library                  : x264 core 122 r2184 5c85e0a\n\n\nAudio\nID                               : 2\nFormat                           : Vorbis\nFormat settings, Floor           : 1\nCodec ID                         : A_VORBIS\nDuration                         : 23mn 9s\nBit rate mode                    : Variable\nBit rate                         : 48.0 Kbps\nChannel(s)                       : 2 channels\nSampling rate                    : 44.1 KHz\nCompression mode                 : Lossy\nDelay relative to video          : 1mn 5s\nStream size                      : 7.95 MiB (14%)\nWriting library                  : libVorbis (Schaufenugget) (20101101 (Schaufenugget))\nLanguage                         : English\nWriting application              : Lavc54.15.100\n\nText\nID                               : 3\nFormat                           : ASS\nCodec ID                         : S_TEXT/ASS\nCodec ID/Info                    : Advanced Sub Station Alpha\nCompression mode                 : Lossless\nLanguage                         : English","torrent":{"xt":"urn:btih:627c5a973ff86cc3de9aca48333ae9f19b6b9bb9","amp;dn":"Naruto+Shippuuden+264+mkv+60+mb+Bzingaz.mkv","amp;tr":["udp%3A%2F%2Ftracker.openbittorrent.com%3A80","udp%3A%2F%2Fopen.demonii.com%3A1337","udp%3A%2F%2Ftracker.coppersurfer.tk%3A6969","udp%3A%2F%2Fexodus.desync.com%3A6969"],"infoHash":"627c5a973ff86cc3de9aca48333ae9f19b6b9bb9","infoHashBuffer":{"type":"Buffer","data":[98,124,90,151,63,248,108,195,222,154,202,72,51,58,233,241,155,107,155,185]},"announce":[],"urlList":[]}}